<?xml version="1.0" encoding="UTF-8"?>
<svg id="Layer_1" data-name="Layer 1" xmlns="http://www.w3.org/2000/svg" viewBox="0 0 693.43 85.59">
  <defs>
    <style>
      .cls-1 {
        fill: #005c00;
      }

      .cls-2, .cls-3 {
        stroke: #005c00;
        stroke-miterlimit: 10;
        stroke-width: 2px;
      }

      .cls-2, .cls-4 {
        fill: #024424;
      }

      .cls-3 {
        fill: none;
      }
    </style>
  </defs>
  <path class="cls-4" d="M150.45,29.29c-.68-6.3-4.65-9.36-12.79-9.36-7.56,0-11.53,2.6-11.53,7.23,0,3.89,2.81,6.12,9.98,7.79,7.27,1.67,14.34,3.34,19.09,5.38,5.62,2.41,10.08,6.21,10.08,14.93,0,13.53-10.66,19.56-25.68,19.56-15.89,0-26.94-6.77-27.23-20.58h12.99c.19,6.3,5.72,10.2,14.35,10.2,7.95,0,12.5-3.24,12.5-8.71,0-3.62-1.94-6.12-9.98-7.79-7.95-1.67-13.08-2.78-17.64-4.73-6.88-2.97-10.76-7.42-10.76-15.2,0-11.03,7.85-18.91,23.55-18.91s25.39,8.44,25.88,20.21h-12.79Z"/>
  <path class="cls-4" d="M198.72,72.67c-.39-1.11-.68-2.69-.78-4.08-3,3.15-8.04,5.28-14.44,5.28-10.85,0-15.89-5.1-15.89-12.51,0-13.16,9.21-14.65,21.9-16.31,6.3-.83,8.05-2.04,8.05-5.19,0-2.97-3.1-4.73-8.05-4.73-5.72,0-8.04,2.69-8.62,6.77h-11.73c.19-9.46,5.62-16.04,20.93-16.04s20.35,6.49,20.35,17.98v28.83h-11.73ZM197.85,50.33c-1.26,1.2-3.49,1.85-8.14,2.69-7.17,1.3-9.5,3.24-9.5,7.14,0,3.43,2.13,5.1,6.11,5.1,6.49,0,11.34-4.54,11.44-9.92l.1-5.01Z"/>
  <path class="cls-4" d="M215.98,72.67V10.38h12.6v62.29h-12.6Z"/>
  <path class="cls-4" d="M245.44,53.02c.39,6.86,4.46,11.31,10.66,11.31,4.07,0,7.66-1.95,8.53-5.1h12.99c-2.91,9.36-10.76,14.65-20.93,14.65-15.89,0-23.84-8.34-23.84-24.84,0-14.09,8.43-23.18,23.06-23.18s22.39,9.08,22.39,27.16h-32.85ZM265.31,45.42c-.19-6.77-4.85-10.01-9.79-10.01s-9.21,3.71-9.69,10.01h19.48Z"/>
  <path class="cls-1" d="M282.66,72.67V10.38h12.41v22.62c3.59-4.82,8.24-7.14,14.15-7.14,12.31,0,19.58,9.73,19.58,23.55,0,15.39-8.62,24.47-20.64,24.47-5.81,0-10.27-2.13-13.28-6.77l-.1,5.56h-12.12ZM316,50.24c0-9.36-3.49-14.09-10.85-14.09-6.98,0-10.56,4.91-10.56,14.83,0,7.69,4.65,13.07,10.66,13.07s10.76-5.65,10.76-13.81Z"/>
  <path class="cls-1" d="M333.74,21.6v-11.22h12.6v11.22h-12.6ZM333.74,72.67V27.06h12.6v45.61h-12.6Z"/>
  <path class="cls-1" d="M350.41,72.67v-9.27l24.32-26.79h-22.68v-9.55h38.77v9.73l-24.33,26.05h25.01v9.83h-41.09Z"/>
  <path class="cls-4" d="M394.9,70.03v-7.23c0-1.46,1.24-2.64,2.76-2.64h7.95c1.53,0,2.76,1.18,2.76,2.64v7.23c0,1.46-1.24,2.64-2.76,2.64h-7.95c-1.53,0-2.76-1.18-2.76-2.64Z"/>
  <path class="cls-4" d="M456.25,56.17c-1.36,10.57-10.37,17.71-21.9,17.71-12.99,0-21.9-8.25-21.9-24.57s8.92-23.45,22.29-23.45c12.41,0,20.84,6.77,21.61,17.52h-12.7c-.68-4.73-4.26-7.51-9.01-7.51-5.33,0-9.69,3.24-9.69,13.16s4.36,14.74,9.31,14.74,8.82-2.69,9.3-7.6h12.7Z"/>
  <path class="cls-4" d="M458.87,49.87c0-14.46,9.4-24.01,24.52-24.01s24.23,9.46,24.23,24.01-9.4,24.01-24.23,24.01-24.52-9.83-24.52-24.01ZM494.93,49.87c0-9.27-3.88-13.81-11.54-13.81s-11.53,4.54-11.53,13.81,3.88,13.91,11.53,13.91,11.54-4.64,11.54-13.91Z"/>
  <path class="cls-4" d="M568.1,72.67v-27.62c0-5.47-3-9.36-7.46-9.36s-8.04,4.17-8.04,9.73v27.25h-12.6v-27.44c0-7.32-2.04-9.18-7.56-9.18-5.04,0-7.66,2.97-7.66,8.9v27.72h-12.6V27.06h11.82v6.67c3.2-6.03,7.66-7.88,13.96-7.88s9.59,1.95,13.28,7.23c2.62-5.01,6.88-7.23,12.89-7.23,9.59,0,16.28,6.67,16.28,15.2v31.61h-12.31Z"/>
  <path class="cls-4" d="M633.24,72.67c-.39-1.11-.68-2.69-.78-4.08-3,3.15-8.04,5.28-14.44,5.28-10.85,0-15.89-5.1-15.89-12.51,0-13.16,9.21-14.65,21.9-16.31,6.3-.83,8.05-2.04,8.05-5.19,0-2.97-3.1-4.73-8.05-4.73-5.72,0-8.04,2.69-8.62,6.77h-11.73c.19-9.46,5.62-16.04,20.93-16.04s20.35,6.49,20.35,17.98v28.83h-11.73ZM632.37,50.33c-1.26,1.2-3.49,1.85-8.14,2.69-7.17,1.3-9.5,3.24-9.5,7.14,0,3.43,2.13,5.1,6.11,5.1,6.49,0,11.34-4.54,11.44-9.92l.1-5.01Z"/>
  <path class="cls-4" d="M681.51,72.67v-6.4c-3.29,5.19-8.24,7.6-14.83,7.6-9.5,0-16.19-6.77-16.19-16.78v-30.04h12.6v28.18c0,5.75,2.71,8.53,8.04,8.53,6.4,0,9.79-4.36,9.79-10.38v-26.33h12.5v45.61h-11.92Z"/>
  <rect class="cls-2" x="1" y="1" width="100.48" height="83.59" rx="14.1" ry="14.1"/>
  <ellipse class="cls-2" cx="50.37" cy="42.77" rx="37" ry="25.73"/>
  <circle class="cls-3" cx="52.09" cy="40.43" r="6.24"/>
  <rect class="cls-3" x="41.4" y="47.45" width="7.12" height=".45" rx=".09" ry=".09" transform="translate(-20.11 39.93) rotate(-39.89)"/>
  <path class="cls-4" d="M584.54,70.03v-7.23c0-1.46,1.24-2.64,2.76-2.64h7.95c1.53,0,2.76,1.18,2.76,2.64v7.23c0,1.46-1.24,2.64-2.76,2.64h-7.95c-1.53,0-2.76-1.18-2.76-2.64Z"/>
</svg>